<?xml version="1.0" encoding="UTF-8" standalone="no"?>
<!-- Created with Inkscape (http://www.inkscape.org/) -->

<svg
   width="32"
   height="32"
   viewBox="0 0 127 127"
   version="1.1"
   id="svg414"
   inkscape:version="1.1.2 (b8e25be8, 2022-02-05)"
   sodipodi:docname="5x5RoboticsLogo.svg"
   xmlns:inkscape="http://www.inkscape.org/namespaces/inkscape"
   xmlns:sodipodi="http://sodipodi.sourceforge.net/DTD/sodipodi-0.dtd"
   xmlns="http://www.w3.org/2000/svg"
   xmlns:svg="http://www.w3.org/2000/svg">
  <sodipodi:namedview
     id="namedview416"
     pagecolor="#ffffff"
     bordercolor="#000000"
     borderopacity="0.25"
     inkscape:showpageshadow="2"
     inkscape:pageopacity="0.0"
     inkscape:pagecheckerboard="0"
     inkscape:deskcolor="#d1d1d1"
     inkscape:document-units="in"
     showgrid="false"
     inkscape:zoom="0.7080771"
     inkscape:cx="325.52952"
     inkscape:cy="507.71307"
     inkscape:window-width="1728"
     inkscape:window-height="975"
     inkscape:window-x="0"
     inkscape:window-y="38"
     inkscape:window-maximized="1"
     inkscape:current-layer="layer1"
     inkscape:pageshadow="2"
     units="in" />
  <defs
     id="defs411" />
  <g
     inkscape:label="Layer 1"
     inkscape:groupmode="layer"
     id="layer1">
    <g
       id="g990"
       transform="matrix(0.46973495,0,0,0.46973495,7.6962076,-5.261956)">
      <path
         style="fill:#de1c36;fill-opacity:1;stroke-width:0.264583"
         d="m 113.96573,253.88812 -0.74235,-0.63853 -0.0689,-37.06459 -0.0689,-37.0646 h -6.21498 -6.21498 v 25.81001 c 0,28.27206 0.0746,26.94736 -1.555519,27.62257 -0.90877,0.37643 -1.765435,0.1821 -2.61167,-0.59245 l -0.595313,-0.54487 v -27.85267 -27.85267 l 0.638432,-0.74236 0.638429,-0.74235 17.405211,-0.13229 17.40521,-0.1323 3.09595,-5.33369 3.09595,-5.33369 -0.68562,-1.41318 c -0.88767,-1.82965 -0.93911,-4.51512 -0.12083,-6.30798 1.12291,-2.46029 3.70552,-4.25057 6.41445,-4.44651 l 1.46046,-0.10564 1.38158,-2.37899 1.38159,-2.37898 -3.40219,-5.86213 c -1.8712,-3.22417 -3.66852,-6.33837 -3.99404,-6.92046 -0.32552,-0.58208 -2.13916,-3.73724 -4.03033,-7.01145 -1.89117,-3.27422 -3.72809,-6.46006 -4.08204,-7.07964 l -0.64356,-1.12651 -16.15627,0.0682 -16.156259,0.0682 -1.458244,2.51355 c -2.10912,3.63544 -9.054499,15.69455 -12.495601,21.69583 -1.627097,2.83766 -3.201368,5.36773 -3.498379,5.6224 -0.650698,0.55791 -2.016315,0.6027 -2.748121,0.0901 -0.800166,-0.56046 -12.644398,-14.87856 -12.929089,-15.62955 -0.161867,-0.42699 -0.109366,-1.95181 0.152492,-4.42905 l 0.399346,-3.77788 -6.137486,-6.74687 c -3.375615,-3.71078 -6.846215,-7.51419 -7.712443,-8.45202 l -1.574959,-1.70513 -0.906716,0.38006 c -1.298228,0.54417 -3.836755,0.45103 -5.285782,-0.19393 -5.23657,-2.33081 -6.217232,-9.297138 -1.800265,-12.788553 1.509414,-1.19312 2.667871,-1.578546 4.75079,-1.580621 2.650923,-0.0026 4.726842,1.12808 6.291804,3.42705 0.746065,1.095989 0.916467,1.620946 1.026822,3.163292 0.07289,1.018792 -0.0063,2.399752 -0.176371,3.075132 l -0.308685,1.2259 2.304111,2.55722 c 2.638121,2.92792 5.783988,6.37962 10.150237,11.13702 1.67349,1.82341 3.255674,3.55356 3.515968,3.84477 0.749078,0.83807 0.804286,1.5306 0.418431,5.24877 -0.199387,1.92133 -0.362524,3.64159 -0.362524,3.8228 0,0.18121 2.024062,2.76247 4.497917,5.73612 5.109149,6.14136 4.513355,5.87304 6.212808,2.79795 0.442322,-0.80037 1.114179,-1.99099 1.493017,-2.64583 0.378836,-0.65485 1.792018,-3.09563 3.140403,-5.42396 1.348385,-2.32834 2.689487,-4.65005 2.980227,-5.15938 0.290737,-0.50932 0.94103,-1.64041 1.445093,-2.51354 3.934918,-6.81595 4.704493,-8.20214 4.704493,-8.47395 0,-0.31767 -9.404284,-26.906103 -10.540201,-29.799977 C 84.909523,84.960597 84.550761,84.660824 84.068931,84.564431 74.431872,82.63651 72.565279,82.171045 72.010948,81.557582 71.655002,81.163665 68.967703,73.684923 67.685334,69.519421 67.374779,68.51065 67.158765,68.234269 66.581106,68.106597 63.714803,67.4731 62.125416,66.285165 60.950203,63.897968 60.17631,62.325967 60.115059,62.016894 60.229076,60.259082 c 0.134477,-2.07327 0.549135,-3.104658 1.838661,-4.573347 1.732254,-1.972929 4.451382,-2.845618 7.460433,-2.394381 1.864746,0.279635 4.07739,2.037178 5.038804,4.00241 1.485786,3.037104 0.770184,6.846853 -1.671047,8.896392 l -0.995585,0.835843 1.816216,5.306377 c 0.998919,2.918508 1.902696,5.378299 2.008391,5.466202 0.105699,0.0879 2.871084,0.721669 6.145303,1.408369 4.12142,0.864386 6.101998,1.395886 6.436968,1.727404 0.429705,0.425272 1.938772,4.391588 5.194062,13.651674 0.921811,2.622214 2.269625,6.402965 4.150175,11.641665 0.365665,1.01865 1.091554,3.07248 1.613085,4.56406 l 0.948238,2.71198 h 3.79332 3.79332 V 96.690058 79.876382 l 0.70009,-0.648824 c 1.04304,-0.966658 2.48434,-0.896146 3.37743,0.165227 l 0.68498,0.814049 v 16.648451 16.648445 h 3.30729 3.30729 V 95.029533 76.555332 l -5.22552,-2.715207 c -2.87404,-1.493363 -5.43388,-2.95629 -5.68854,-3.250946 -0.42037,-0.486386 -0.46302,-1.323408 -0.46302,-9.08682 v -8.551085 l -1.21515,-0.606875 c -3.3975,-1.696794 -4.88245,-6.056807 -3.29707,-9.680641 2.2399,-5.119925 9.39603,-6.002888 12.6879,-1.565502 0.55688,0.750668 1.14782,1.769573 1.31321,2.26423 0.38755,1.159166 0.3859,3.664246 -0.003,4.815829 -0.52152,1.543611 -1.96894,3.269795 -3.39051,4.043513 l -1.34089,0.729801 0.0702,7.408836 0.0702,7.408836 5.27875,2.73636 c 2.90331,1.505 5.43339,2.947847 5.62239,3.206329 0.27452,0.375418 0.34365,4.426842 0.34365,20.137927 v 19.667963 l 3.88835,-0.0732 3.88834,-0.0732 1.02417,-2.37293 c 0.56329,-1.30511 3.56506,-7.5174 6.6706,-13.805075 4.86875,-9.857591 5.75731,-11.489475 6.45143,-11.848422 1.16741,-0.603692 1.83049,-0.51611 2.70371,0.357119 1.03998,1.039974 0.99843,1.969846 -0.19333,4.326435 -0.5317,1.051393 -3.54614,7.279695 -6.69875,13.840673 l -5.73202,11.92904 1.8378,3.15221 c 2.23487,3.83325 6.65352,11.48881 7.46977,12.94178 0.327,0.58209 2.21444,3.84388 4.19432,7.24843 3.75769,6.46163 4.10231,7.37946 3.24173,8.63385 -0.19692,0.28704 -0.68653,1.1172 -1.088,1.84481 -0.40148,0.7276 -1.02085,1.82087 -1.37639,2.42947 l -0.64642,1.10656 0.81787,1.12905 c 0.44983,0.62097 0.9468,1.64106 1.10438,2.26687 l 0.28651,1.13784 h 3.52257 3.52257 l 4.13866,-3.77031 c 5.07299,-4.62149 5.41938,-4.8559 6.70584,-4.538 0.71507,0.1767 1.09596,0.48264 1.46957,1.18043 0.92501,1.72762 1.10031,1.52238 -9.2958,10.8832 l -1.11856,1.00718 h -4.88345 -4.88345 l -1.41478,1.41479 c -1.74008,1.74007 -3.46145,2.40466 -5.79177,2.2361 l -1.56369,-0.1131 -3.43734,5.91879 -3.43735,5.91879 v 5.3052 c 0,4.14494 0.0723,5.27357 0.33073,5.16053 0.55514,-0.24285 9.33439,-4.21782 13.82448,-6.25929 2.32834,-1.0586 4.51415,-2.14464 4.85737,-2.41342 0.51832,-0.40591 13.00038,-12.12347 20.41034,-19.16026 1.77217,-1.68293 7.00788,-6.59367 7.8767,-7.38782 0.2702,-0.24698 0.24428,-0.48577 -0.1323,-1.21843 -0.7156,-1.3923 -0.6431,-4.79777 0.13333,-6.26204 1.43351,-2.70348 3.78924,-4.13987 6.80665,-4.15028 3.00679,-0.0104 5.55492,1.61098 6.82337,4.34169 0.85217,1.83456 0.79032,4.74086 -0.13873,6.51876 -0.86381,1.65305 -2.49525,3.10082 -4.11679,3.65334 -1.36515,0.46515 -3.65139,0.53944 -4.671,0.15179 -0.64268,-0.24435 -1.07871,0.11493 -7.49171,6.17281 -3.74512,3.53774 -10.49666,9.89751 -15.00343,14.13281 l -8.19411,7.70057 -3.05068,1.36383 c -1.67787,0.75011 -6.47372,2.91597 -10.65744,4.81302 l -7.60678,3.44919 v 10.04125 10.04125 l -0.77339,0.7734 c -0.52784,0.52784 -1.03834,0.7734 -1.60786,0.7734 -0.56951,0 -1.08001,-0.24556 -1.60785,-0.7734 l -0.7734,-0.7734 v -17.3506 -17.35056 h -6.35 -6.35 v 37.05369 37.05369 l -0.64943,0.64943 c -0.86714,0.86715 -2.23757,0.87177 -3.23842,0.0109 z m 32.09244,-93.39439 c 1.14219,-1.14219 1.21948,-2.3838 0.22217,-3.56903 -1.32536,-1.57511 -3.5671,-1.2584 -4.46348,0.63058 -0.59412,1.25202 -0.18766,2.60357 1.00098,3.32836 1.25929,0.76786 2.19517,0.65525 3.24033,-0.38991 z m 45.04525,-9.55861 c 1.05599,-0.88856 1.27513,-1.96871 0.65632,-3.23509 -1.10044,-2.25205 -4.54757,-1.81342 -5.0073,0.63714 -0.4815,2.56666 2.36691,4.26744 4.35098,2.59795 z M 50.140604,102.67617 c 0.598366,-0.59836 0.773398,-1.01418 0.773398,-1.83733 0,-1.523698 -0.847114,-2.427729 -2.443493,-2.607664 -1.114682,-0.12564 -1.314209,-0.06045 -2.04179,0.667137 -1.736325,1.736327 -0.598635,4.551257 1.83945,4.551257 0.861949,0 1.26588,-0.16684 1.872435,-0.7734 z M 69.345078,62.827479 c 0.835557,-0.54016 1.282536,-2.070819 0.884986,-3.030593 -0.455755,-1.100291 -1.138851,-1.616535 -2.354805,-1.77963 -0.963001,-0.129164 -1.165984,-0.04921 -2.004912,0.789716 -0.699693,0.699693 -0.933428,1.157197 -0.933428,1.827056 0,2.231705 2.45746,3.454511 4.408159,2.193451 z M 112.0531,47.642836 c 1.70432,-1.704319 0.53818,-4.518269 -1.87243,-4.518269 -1.54715,0 -2.64584,1.098688 -2.64584,2.645834 0,1.547145 1.09869,2.645833 2.64584,2.645833 0.86195,0 1.26588,-0.166841 1.87243,-0.773398 z"
         id="path409" />
      <path
         style="fill:#5b656f;stroke-width:0.264583"
         d="m 84.580786,195.3819 c -1.610193,-0.67704 -1.652201,-0.96305 -1.652201,-11.24923 v -9.30151 l -0.651796,-0.83194 c -0.358489,-0.45757 -0.82764,-1.03321 -1.042561,-1.27919 -0.214919,-0.24599 -1.439659,-1.83062 -2.721639,-3.5214 -1.281983,-1.69079 -3.283379,-4.30705 -4.447545,-5.81391 -4.576948,-5.92428 -8.531919,-11.09837 -9.873335,-12.91681 -0.773668,-1.04879 -1.636871,-2.15268 -1.918229,-2.4531 -0.353539,-0.37749 -0.511561,-0.92502 -0.511561,-1.77248 0,-1.07964 0.105799,-1.30695 0.88487,-1.90117 1.565341,-1.19395 2.507326,-0.80473 4.605094,1.90279 0.836821,1.08006 2.507548,3.23387 3.712728,4.78625 1.20518,1.55237 3.079213,4.01312 4.164521,5.46832 1.085307,1.45521 2.273887,3.00302 2.641287,3.43959 0.367403,0.43656 1.512433,1.92484 2.544514,3.30729 1.032079,1.38245 2.161429,2.81771 2.509663,3.18948 1.696834,2.40402 3.678999,4.85914 5.131072,6.80789 v 10.31147 c 0,9.90046 -0.02103,10.3382 -0.527574,10.98216 -0.752705,0.95691 -1.825027,1.27533 -2.847308,0.8455 z M 103.253,166.76407 c -0.39048,-0.24466 -0.86403,-0.74949 -1.05233,-1.12185 -0.18831,-0.37237 -0.63881,-1.15328 -1.00112,-1.73536 -0.36231,-0.58209 -0.87103,-1.44529 -1.13048,-1.91823 -0.259455,-0.47294 -0.684016,-1.24685 -0.943471,-1.71979 -0.259453,-0.47295 -0.795235,-1.36355 -1.190625,-1.97912 -0.395388,-0.61557 -0.722202,-1.21089 -0.72625,-1.32292 -0.004,-0.11203 -0.361235,-0.67139 -0.79375,-1.24301 -0.432514,-0.57163 -0.786389,-1.13508 -0.786389,-1.25211 0,-0.11704 -0.495229,-1.01856 -1.100508,-2.00339 -1.429382,-2.3257 -2.603659,-4.68929 -2.603659,-5.24067 0,-1.17083 1.409944,-2.50305 2.649077,-2.50305 0.549495,0 2.326034,1.43371 2.604871,2.1022 0.196596,0.47132 2.041909,3.68773 3.347804,5.8353 0.48669,0.80036 1.49747,2.52677 2.24616,3.83645 0.7487,1.30969 1.74379,3.0361 2.2113,3.83646 l 0.85003,1.45521 10.89996,0.13229 10.89995,0.13229 0.85147,0.85176 c 1.12041,1.12079 1.16964,2.41629 0.13127,3.45494 l -0.72019,0.72039 -11.96658,0.0635 c -10.82103,0.0574 -12.03454,0.0209 -12.67654,-0.3813 z m 29.20666,-20.33813 c -0.3261,-0.22841 -0.90399,-1.03208 -1.28419,-1.78594 -0.38021,-0.75385 -0.7752,-1.43017 -0.87776,-1.50293 -0.10256,-0.0728 -0.77156,-1.17834 -1.48666,-2.45684 -2.3037,-4.1187 -2.70665,-4.81438 -2.94465,-5.08379 -0.12856,-0.14552 -0.6423,-1.00872 -1.14164,-1.91823 l -0.9079,-1.65364 -9.66237,-0.006 c -8.75536,-0.005 -9.71534,-0.0488 -10.22671,-0.46302 -1.36192,-1.1032 -1.51795,-2.64888 -0.38205,-3.78478 l 0.7734,-0.77341 10.93442,0.006 c 12.32548,0.007 11.55727,-0.12122 12.68344,2.11078 0.3304,0.65484 0.87571,1.55905 1.21179,2.00935 0.33608,0.4503 0.61105,0.89915 0.61105,0.99744 0,0.0983 0.32054,0.68237 0.7123,1.29795 0.39176,0.61557 1.00459,1.655 1.36184,2.30984 0.35725,0.65485 0.78086,1.43043 0.94135,1.72352 0.16049,0.29309 0.5597,0.90678 0.88712,1.36376 0.32742,0.45698 0.59531,0.94345 0.59531,1.08106 0,0.1376 0.32976,0.71453 0.73279,1.28207 1.63045,2.29594 1.80505,3.69412 0.61048,4.88869 -0.88637,0.88637 -2.17708,1.03351 -3.14136,0.35811 z m 12.93971,-29.0581 c -0.72005,-0.3991 -1.32671,-1.36471 -1.34718,-2.14432 -0.008,-0.29104 0.86705,-2.3151 1.94376,-4.49791 1.07671,-2.18281 3.11678,-6.35 4.53347,-9.26042 1.4167,-2.910415 3.50484,-7.160208 4.64032,-9.443986 1.63847,-3.295419 1.9937,-4.211089 1.72138,-4.437102 -0.18873,-0.156628 -0.91046,-1.264647 -1.60384,-2.462262 -0.69338,-1.197616 -1.33885,-2.237013 -1.43438,-2.309773 -0.0955,-0.07276 -0.48566,-0.672677 -0.86697,-1.333148 -0.3813,-0.660472 -1.11973,-1.848382 -1.64094,-2.639801 -1.14879,-1.744358 -1.1798,-2.496926 -0.17715,-4.299289 0.42378,-0.76178 1.82414,-3.481197 3.11192,-6.043152 l 2.3414,-4.658098 -0.79,-1.55961 c -1.03234,-2.038046 -1.09747,-4.616548 -0.16302,-6.454402 1.83369,-3.606472 5.2095,-5.123111 9.30106,-4.178665 1.77029,0.65418 3.14638,1.495803 4.10509,2.860524 0.82518,1.174634 1.10262,2.723465 1.11793,4.15889 0.0159,1.48871 -0.13895,3.17304 -1.06721,4.337013 -1.6663,2.089415 -4.61688,3.918037 -7.16386,3.59986 l -1.11277,-0.139009 -2.48367,5.013057 c -2.64309,5.334855 -2.63928,5.31781 -1.49584,6.705621 0.23979,0.291042 0.99515,1.43972 1.67858,2.552618 0.68342,1.112899 1.83032,2.958367 2.54866,4.101042 0.91555,1.456391 1.3093,2.359792 1.3169,3.021407 0.008,0.671621 -0.70198,2.388499 -2.46081,5.953125 -1.35941,2.755119 -3.48542,7.0929 -4.72448,9.63952 -6.73388,13.84005 -7.0057,14.29755 -8.48316,14.27812 -0.39207,-0.005 -0.9974,-0.16709 -1.34519,-0.35985 z m 18.79467,-56.819407 c 1.05683,-1.374066 0.29575,-3.691311 -1.31841,-4.014142 -2.42108,-0.484217 -4.13472,1.878375 -2.81895,3.886488 0.52705,0.804384 0.96594,0.952114 2.4896,0.838007 0.84965,-0.06363 1.29951,-0.257564 1.64776,-0.710353 z M 84.019695,116.75696 c -0.720236,-0.28599 -1.855512,-1.81897 -2.121289,-2.86441 -0.149109,-0.58652 -0.539694,-1.65808 -0.867973,-2.38125 -0.328277,-0.72317 -0.735114,-1.79111 -0.904082,-2.37319 -0.168968,-0.58209 -0.552217,-1.65365 -0.851664,-2.38125 -0.299448,-0.72761 -0.924412,-2.33495 -1.388809,-3.57188 -0.464394,-1.23692 -1.18664,-3.06801 -1.604991,-4.069074 -0.418349,-1.001064 -0.760635,-1.968516 -0.760635,-2.149891 0,-0.181374 -0.297656,-1.002823 -0.661458,-1.825445 -0.851959,-1.926428 -0.833562,-2.324491 0.159699,-3.455754 0.679345,-0.773732 1.001385,-0.935249 1.864718,-0.935249 1.660374,0 1.970624,0.459552 4.019047,5.953125 0.37983,1.018645 1.110199,2.950847 1.623047,4.293778 0.512847,1.34294 0.932447,2.56494 0.932447,2.71557 0,0.15063 0.113294,0.48062 0.251767,0.7333 0.296047,0.54024 0.80001,1.79488 1.459881,3.63443 0.261,0.72761 0.83481,2.27542 1.275135,3.43959 0.440322,1.16416 0.799785,2.4277 0.798801,2.80786 -0.0024,0.91582 -0.823423,1.99872 -1.774545,2.34047 -0.833892,0.29963 -0.907862,0.30419 -1.449096,0.0893 z"
         id="path407"
         sodipodi:nodetypes="sscsssssssssssssccssssssssssssssssssscccsscsssssssscssscssssssssssssssssssssssssscsscaaascssssssssssssssssssssssssssssssssss" />
    </g>
  </g>
</svg>
